<?xml version="1.0" encoding="UTF-8" standalone="no"?>
<svg width="12px" height="18px" viewBox="0 0 18 24" version="1.1" xmlns="http://www.w3.org/2000/svg" xmlns:xlink="http://www.w3.org/1999/xlink">
    <!-- Generator: Sketch 3.8.2 (29753) - http://www.bohemiancoding.com/sketch -->
    <title>icon-location 2</title>
    <desc>Created with Sketch.</desc>
    <defs></defs>
    <g id="Page-1" stroke="none" stroke-width="1" fill="none" fill-rule="evenodd">
        <g id="icon-location" fill="#FF83B5">
            <path d="M9,0 C4.03711607,0 0,4.03711607 0,9 C0,10.8907232 0.588160714,12.7045714 1.69885714,14.2470804 L1.93505357,14.578125 L8.40013393,23.6997321 C8.54185714,23.8886786 8.76452679,24 9,24 C9.23544643,24 9.45814286,23.8886786 9.59986607,23.6997321 L15.984375,14.6865268 L16.2993482,14.25 C17.4118661,12.7045714 18,10.8907232 18,9 C18,4.03711607 13.9628839,0 9,0 L9,0 Z M9,12 C7.34544643,12 6,10.6545536 6,9 C6,7.34544643 7.34544643,6 9,6 C10.6545536,6 12,7.34544643 12,9 C12,10.6545536 10.6545536,12 9,12 L9,12 Z" id="Shape"></path>
        </g>
    </g>
</svg>
